<svg version="1.2" xmlns="http://www.w3.org/2000/svg" viewBox="0 0 600 600" width="600" height="600">
	<title>logo_php-svg</title>
	<defs>
		<clipPath clipPathUnits="userSpaceOnUse" id="cp1">
			<path d="m299.6 449.62c-157.46 0-284.74-66.95-284.74-149.78 0-82.83 127.28-149.78 284.74-149.78 157.47 0 284.75 66.95 284.75 149.78 0 82.83-127.28 149.78-284.75 149.78z"/>
		</clipPath>
		<radialGradient id="g1" cx="185.8" cy="202.7" r="373.9" gradientUnits="userSpaceOnUse">
			<stop offset="0" stop-color="#aeb2d5"/>
			<stop offset=".3" stop-color="#aeb2d5"/>
			<stop offset=".8" stop-color="#484c89"/>
			<stop offset="1" stop-color="#484c89"/>
		</radialGradient>
		<clipPath clipPathUnits="userSpaceOnUse" id="cp2">
			<path d="m3 133h593.21v333.68h-593.21z"/>
		</clipPath>
		<clipPath clipPathUnits="userSpaceOnUse" id="cp3">
			<path d="m3 133h593.21v333.68h-593.21z"/>
		</clipPath>
	</defs>
	<style>
		.s0 { fill: url(#g1) } 
		.s1 { fill: #777bb3 } 
		.s2 { fill: #000000 } 
		.s3 { fill: #ffffff } 
	</style>
	<g id="g3438">
		<g id="g3440">
			<g id="Clip-Path: g3442" clip-path="url(#cp1)">
				<g id="g3442">
					<g id="g3448">
						<g id="g3450">
							<path id="path3462" class="s0" d="m299.6 449.6c-157.5 0-284.7-66.9-284.7-149.8 0-82.8 127.2-149.7 284.7-149.7 157.5 0 284.7 66.9 284.7 149.7 0 82.9-127.2 149.8-284.7 149.8z"/>
						</g>
					</g>
				</g>
			</g>
		</g>
		<g id="g3464">
			<g id="Clip-Path: g3466" clip-path="url(#cp2)">
				<g id="g3466">
					<g id="g3472">
						<path id="path3474" class="s1" d="m299.6 438.5c-151.3 0-273.6-62-273.6-138.7 0-76.6 122.3-138.6 273.6-138.6 151.3 0 273.6 62 273.6 138.6 0 76.7-122.3 138.7-273.6 138.7z"/>
					</g>
				</g>
			</g>
		</g>
		<g id="g3476">
			<g id="Clip-Path: g3478" clip-path="url(#cp3)">
				<g id="g3478">
					<g id="g3484">
						<path id="path3486" fill-rule="evenodd" class="s2" d="m104.6 386.8c-0.9 0-1.8-0.4-2.4-1.1-0.6-0.7-0.8-1.7-0.6-2.6l29.2-150.1c0.2-1.4 1.5-2.5 3-2.5h62.9c19.7 0 34.4 5.4 43.7 16 9.3 10.6 12.2 25.5 8.5 44.2-1.5 7.6-4 14.7-7.5 21-3.6 6.3-8.3 12.2-14 17.4-6.8 6.4-14.5 11-22.9 13.8-8.2 2.6-18.8 4-31.4 4h-25.5l-7.2 37.4c-0.3 1.5-1.6 2.5-3.1 2.5zm65-69.8c12.4 0 21.7-2.3 27.5-6.8 5.8-4.4 9.9-12.2 12-23 1.9-10.1 1.2-17.1-2.3-21-3.5-3.8-11.1-5.8-22.5-5.8h-19.9l-11 56.6z"/>
					</g>
					<g id="g3488">
						<path id="path3490" fill-rule="evenodd" class="s3" d="m242.7 244.4c10 11.4 13.1 27.2 9.3 46.9-1.6 7.9-4.2 15.3-7.9 21.9-3.7 6.6-8.6 12.7-14.5 18.2-7.2 6.7-15.3 11.5-24.1 14.4-8.6 2.8-19.5 4.2-32.4 4.2h-22.9l-6.8 34.9c-0.6 2.9-3.1 5-6.1 5h-32.7c-1.8 0-3.6-0.8-4.7-2.3-1.2-1.4-1.7-3.3-1.3-5.1l29.1-150.1c0.6-2.9 3.1-5 6.1-5h62.9c20.7 0 36.2 5.8 46 17zm-108.9-10.8l-29.2 150.1h32.7l7.8-39.9h28q18.5 0 30.5-3.9 12-3.9 21.8-13 8.2-7.6 13.3-16.7 5-9.1 7.2-20.1 5.2-26.7-7.8-41.6-13.1-14.9-41.4-14.9zm28.1 23.7h22.4q18.6 0 24.8 6.9 6.2 6.9 3 23.6-3.4 17.4-13.1 24.9-9.7 7.4-29.5 7.4h-19.8zm-4.8 56.7h12.4c11.8 0 20.4-2.1 25.7-6.2 5.2-4 8.8-11.1 10.8-21.2 1.7-8.9 1.2-15.3-1.5-18.3-1.6-1.8-6.4-4.8-20.2-4.8h-17.4z"/>
					</g>
					<g id="g3492">
						<path id="path3494" class="s2" d="m323.9 346.9c-0.9 0-1.8-0.4-2.4-1.1-0.6-0.7-0.8-1.7-0.6-2.6l12.9-66.4c1.2-6.3 0.9-10.8-0.9-12.8-1.1-1.1-4.3-3.1-14-3.1h-23.4l-16.2 83.5c-0.3 1.5-1.6 2.5-3 2.5h-32.5c-0.9 0-1.8-0.4-2.4-1.1-0.6-0.7-0.8-1.7-0.6-2.6l29.2-150.1c0.2-1.4 1.5-2.5 3-2.5h32.4c1 0 1.8 0.4 2.4 1.1 0.6 0.8 0.8 1.7 0.7 2.6l-7.1 36.2h25.2c19.1 0 32.1 3.4 39.7 10.4 7.7 7 10.1 18.4 7.2 33.6l-13.6 69.9c-0.3 1.5-1.6 2.5-3.1 2.5z"/>
					</g>
					<g id="g3496">
						<path id="path3498" fill-rule="evenodd" class="s3" d="m310.2 189.8c1.2 1.4 1.7 3.3 1.3 5.1l-6.3 32.5h21.4c19.9 0 33.6 3.7 41.8 11.2 8.5 7.8 11.3 20.1 8.1 36.5l-13.6 69.9c-0.6 2.9-3.1 5-6.1 5h-32.9c-1.9 0-3.6-0.8-4.8-2.3-1.2-1.4-1.6-3.3-1.3-5.1l12.9-66.4c1.3-6.5 0.5-9.4-0.1-10.1 0 0-2.1-2.1-11.7-2.1h-20.8l-15.8 81c-0.5 2.9-3.1 5-6 5h-32.5c-1.8 0-3.6-0.8-4.7-2.3-1.2-1.4-1.7-3.3-1.3-5.1l29.1-150.1c0.6-2.9 3.1-5 6.1-5h32.4c1.9 0 3.6 0.8 4.8 2.3zm-37.2 3.9l-29.2 150.1h32.5l16.7-86h25.9q12.4 0 16.3 4.1 3.8 4.2 1.6 15.5l-12.9 66.4h32.9l13.6-69.8q4.2-21.4-6.2-30.9-10.3-9.5-37.6-9.5h-28.9l7.7-39.9z"/>
					</g>
					<g id="g3500">
						<path id="path3502" fill-rule="evenodd" class="s2" d="m359.8 386.8c-0.9 0-1.8-0.4-2.3-1.1-0.6-0.7-0.9-1.7-0.7-2.6l29.2-150.1c0.3-1.4 1.5-2.5 3-2.5h62.9c19.8 0 34.5 5.4 43.7 16 9.3 10.6 12.2 25.5 8.5 44.2-1.4 7.6-4 14.7-7.5 21-3.6 6.3-8.2 12.2-13.9 17.4-6.9 6.4-14.6 11-22.9 13.8-8.3 2.6-18.9 4-31.5 4h-25.5l-7.2 37.4c-0.3 1.5-1.6 2.5-3.1 2.5zm65-69.8c12.4 0 21.7-2.3 27.6-6.8 5.8-4.4 9.8-12.2 11.9-23 1.9-10.1 1.2-17.1-2.2-21-3.6-3.8-11.1-5.8-22.6-5.8h-19.8l-11.1 56.6z"/>
					</g>
					<g id="g3504">
						<path id="path3506" fill-rule="evenodd" class="s3" d="m497.9 244.4c10 11.4 13.1 27.2 9.3 46.9-1.6 7.9-4.2 15.3-7.9 21.9-3.7 6.6-8.6 12.7-14.5 18.2-7.2 6.7-15.3 11.5-24.1 14.4-8.5 2.8-19.4 4.2-32.4 4.2h-22.9l-6.8 34.9c-0.6 2.9-3.1 5-6.1 5h-32.7c-1.8 0-3.6-0.8-4.7-2.3-1.2-1.4-1.7-3.3-1.3-5.1l29.1-150.1c0.6-2.9 3.2-5 6.1-5h62.9c20.7 0 36.2 5.8 46 17zm-108.9-10.8l-29.2 150.1h32.7l7.8-39.9h28q18.5 0 30.5-3.9 12-3.9 21.8-13 8.2-7.6 13.3-16.7 5.1-9.1 7.2-20.1 5.2-26.7-7.8-41.6-13-14.9-41.4-14.9zm28.1 23.7h22.4q18.6 0 24.8 6.9 6.2 6.9 3 23.6-3.4 17.4-13.1 24.9-9.7 7.4-29.4 7.4h-19.9zm-4.7 56.7h12.4c11.7 0 20.3-2.1 25.6-6.2 5.2-4 8.9-11.1 10.8-21.2 1.8-8.9 1.2-15.3-1.5-18.3-1.6-1.8-6.4-4.8-20.2-4.8h-17.3z"/>
					</g>
				</g>
			</g>
		</g>
	</g>
</svg>