<svg version="1.2" xmlns="http://www.w3.org/2000/svg" viewBox="0 0 600 600" width="600" height="600">
	<title>logo_javascript-svg</title>
	<style>
		.s0 { fill: #ffffff } 
		.s1 { fill: #eaebec } 
		.s2 { fill: #f0be25 } 
		.s3 { fill: #e4a126 } 
		.s4 { fill: #0e0e0f } 
	</style>
	<path id="path118" class="s0" d="m90.1 118.7v5.4c0.1 2.9 8.5 99.6 18.8 214.9l18.8 209.6 84.2 23.5c46.3 13 85.2 23.7 86.4 23.8 1.1 0 40.5-10.5 87.4-23.5 75.3-20.9 85.5-24 86-26.6 0.8-3.6 37.6-419.4 37.6-423.9v-3.2h-209.6z"/>
	<path id="path88" fill-rule="evenodd" class="s1" d="m212.6 573.5l-85-23.7-1.1-6.3c-1-5.6-37.8-417.1-37.8-422.6 0-1.9 21.5-2.2 211-2.2 200 0 211 0.2 211 2.5-0.1 10.2-38.2 427.2-39.2 428-1.2 1.1-165.6 46.9-171.1 47.7-1.6 0.2-41.1-10.3-87.8-23.4zm140.6-83.9c28.6-7.9 52.4-14.7 52.9-15.2 0.5-0.5 3.8-34.4 7.4-75.3 3.6-40.8 6.9-77 7.3-80.3l0.8-6h-123.3v52.4h66.6l-0.7 3.1c-0.4 1.8-1.8 16.9-3.1 33.5-1.5 17.7-3.2 31-4.2 31.9-0.9 0.9-14.4 5.1-30.1 9.3l-28.5 7.6v26.7c0 18.2 0.4 26.6 1.5 26.6 0.8 0 24.9-6.4 53.4-14.3zm67.6-209.8c-0.9-6.9-9.3-100-9.3-103.5 0-2.1-4.9-2.3-55.9-2.3h-55.9v54.8l25.1 0.9c13.8 0.6 28.4 1.4 32.3 1.8l7.2 0.9 1.8 21.4c0.9 11.8 2.1 23.8 2.5 26.7l0.8 5.4h52.2z"/>
	<path id="path80" fill-rule="evenodd" class="s2" d="m211.9 572.1l-84.2-23.5-18.8-209.6c-10.3-115.3-18.7-212-18.8-214.9v-5.4h419.2v3.2c0 4.5-36.8 420.3-37.6 423.9-0.5 2.6-10.7 5.7-86 26.6-46.9 13-86.3 23.5-87.4 23.5-1.2-0.1-40.1-10.8-86.4-23.8zm141.4-81.5c29.1-8.1 53.4-15.4 53.9-16.2 0.5-0.8 3.9-36.4 7.7-79.1 3.7-42.7 7.1-78.7 7.5-80.1 0.6-2.3-4.3-2.4-89.8-2.4h-90.4l3.8-40.8c2.1-22.3 3.9-40.7 4-40.8 0-0.1 13.3-0.5 29.5-0.9 26.5-0.8 81.1 1.3 83 3.2 0.7 0.7 5.1 44.7 5.1 50.8 0 2.9 0.4 3 27.5 3h27.4l-0.6-6c-0.4-3.4-2.7-29-5.2-57.1l-4.5-50.9-105.8-0.4c-84.2-0.3-105.9 0-105.9 1.4 0 1-0.6 7.2-1.3 13.8-1.9 16.1-15.7 170.9-15.7 175.1v3.4h180.1l-0.8 5.3c-0.4 2.9-1.8 17.7-3.1 32.9-1.2 15.2-2.7 28-3.2 28.5-1.3 1.3-54.3 15.4-57.6 15.4-1.5 0-15.2-3.4-30.4-7.6l-27.6-7.6-1-11.8c-0.6-6.6-1.4-15.9-1.9-20.8l-0.9-8.8h-53.6l0.1 5.3c0.1 9.9 6.6 76.8 7.5 77.7 1.1 1.1 104 30.1 107.2 30.2 1.1 0 25.9-6.6 55-14.7z"/>
	<path id="path78" fill-rule="evenodd" class="s3" d="m211.9 572.1l-84.2-23.5-18.8-209.6c-10.3-115.3-18.7-212-18.8-214.9v-5.4h419.2v3.2c0 4.5-36.8 420.3-37.6 423.9-0.5 2.6-10.7 5.7-86 26.6-46.9 13-86.3 23.5-87.4 23.5-1.2-0.1-40.1-10.8-86.4-23.8zm157.1-31.5c37-10.2 68-19.3 68.9-20.2 1.3-1.4 33.3-352 33.2-363.8l-0.1-3.9h-171.3v19.9h-49.6c-38.7 0-49.6 0.3-49.6 1.7 0 1-0.6 7.2-1.3 13.8-1.9 16.1-15.7 170.9-15.7 175.1v3.4h116.2v41c0 32-0.4 41.1-1.8 41.1-1 0-14.2-3.4-29.4-7.6l-27.6-7.6-1-11.8c-0.6-6.6-1.4-15.9-1.9-20.8l-0.9-8.8h-53.6l0.1 5.3c0.2 15.2 6.7 77.2 8.3 78.1 0.9 0.6 25.6 7.7 54.7 15.8l53.1 14.6v26.7c0 14.6 0.4 26.6 0.9 26.6 0.6 0 31.3-8.4 68.4-18.6zm-123.1-268.2c2-22.2 4-40.6 4.3-40.9 0.3-0.3 11.6-0.8 25-1.2l24.5-0.7v83.2h-57.5z"/>
	<path id="path76" class="s4" d="m223.2 68.5v-13.5h19.1 19.1v-26.2-26.2h13.5 13.4v39.7 39.6h-32.5-32.6zm77.9 2.9v-10.7h17.7c9.7 0 17.7-0.3 17.7-0.8 0-0.4-8-9.4-17.7-20l-17.7-19.1v-9.1-9h36.8 36.8v10.5 10.6l-17.3 0.4-17.2 0.4 17.9 19.4 18 19.4v9.3 9.3h-37.5-37.5z"/>
</svg>